<svg width="342" height="301" viewBox="0 0 342 301" fill="none" xmlns="http://www.w3.org/2000/svg">
<path d="M158.4 1.8666C151.2 4.39994 144.8 10.2666 102.4 52.9333C70.6667 84.9333 64 92.2666 62.8 96.6666C60.9333 103.467 60.8 197.467 62.6667 204C63.6 207.6 74.1333 218.933 108.933 253.6C146.667 291.2 154.8 298.667 159.333 299.867C165.867 301.6 173.067 299.867 177.067 295.6C184.267 288 184 293.733 184 149.333C184 18.2666 184 15.7333 181.333 10.6666C177.067 2.39994 167.333 -1.3334 158.4 1.8666Z" fill="white"/>
<path d="M257.6 28.2666C255.467 30.3999 255.6 35.3332 257.867 37.5999C258.8 38.6666 263.733 41.8666 268.667 44.6666C279.733 51.1999 296.8 66.9332 304.8 78.1332C312.4 88.6666 320.667 106.267 324.267 119.6C326.533 128.133 327.067 133.733 327.067 150.667C327.067 167.6 326.533 173.2 324.267 181.733C320.667 195.067 312.4 212.667 304.8 223.2C296.533 234.8 279.733 250.133 267.067 257.6C255.733 264.267 253.6 267.333 256.933 271.867C259.467 275.733 262.933 275.333 272 270.533C296.933 257.2 321.067 229.2 332.133 200.667C356.4 138 331.467 65.7332 274 32.1332C264.4 26.5332 260.4 25.4666 257.6 28.2666Z" fill="white"/>
<path d="M232.667 65.8665C229.867 70.1331 231.6 73.4665 239.067 78.2665C259.6 91.0665 273.067 110.4 277.867 133.733C280.533 146.533 280.533 154.8 277.867 167.733C273.6 189.066 261.467 207.333 242.933 220.533C231.067 228.933 229.6 232 234.8 236.8C237.467 239.2 237.6 239.2 245.067 235.333C254.533 230.4 273.733 211.466 279.867 201.066C282.267 196.8 286.133 188.133 288.4 181.733C292.4 170.666 292.667 168.933 292.667 150.666C292.667 132.4 292.4 130.666 288.4 119.6C282.933 104.266 277.333 94.9331 266.267 83.1998C256.533 72.9331 242.267 62.6665 237.6 62.6665C236 62.6665 233.733 64.1331 232.667 65.8665Z" fill="white"/>
<path d="M10.9333 91.5999C8.53327 92.7999 5.19994 95.5999 3.59994 97.8666C0.666602 101.867 0.666602 102.933 0.266602 149.067C-0.133398 201.2 -6.46032e-05 202.267 8.53327 208.4C12.2666 211.067 14.5333 211.333 31.7333 211.733L50.9333 212.267L49.7333 209.067C48.3999 205.2 48.2666 97.9999 49.7333 92.9333L50.6666 89.3333H33.0666C19.4666 89.3333 14.2666 89.8666 10.9333 91.5999Z" fill="white"/>
<path d="M204.8 107.867C200.4 112.667 202.533 116.133 212.666 121.333C223.466 126.8 229.866 134.8 231.466 144.667C233.733 160.533 227.333 172.533 212.666 180C204.266 184.267 203.333 185.2 203.333 188.667C203.333 191.467 204.266 193.067 206.8 194.533C209.866 196.267 210.8 196.133 217.6 192.933C227.6 188.4 236.4 180 240.933 170.8C244.266 164.267 244.666 161.867 244.666 150.667C244.666 135.733 242.266 129.2 233.333 119.467C227.866 113.6 213.866 105.333 209.333 105.333C208.133 105.333 206 106.533 204.8 107.867Z" fill="white"/>
</svg>
