<svg width="342" height="342" viewBox="0 0 342 342" fill="none" xmlns="http://www.w3.org/2000/svg">
<path d="M3.33335 2.66657C1.86668 4.26657 1.33335 6.26657 1.86668 8.26657C2.93335 12.7999 332 341.333 335.467 341.333C339.2 341.333 341.333 338.8 341.333 334C341.333 330.533 337.733 326.4 315.333 304L289.467 278.133L297.333 271.067C315.2 254.8 330.267 229.6 336.933 204.4C340 192.933 340.4 188.8 340.4 170C340.4 151.333 340 147.067 336.933 135.867C328.667 104.8 310.8 77.9999 286 59.5999C267.067 45.4666 258.4 42.6666 256.533 49.9999C255.2 55.4666 257.067 57.8666 267.467 63.9999C295.467 80.3999 317.333 110.933 324.933 144.4C328.4 159.867 327.867 185.467 323.6 201.733C319.333 217.6 311.6 233.467 301.733 246.4C294.933 255.333 282.267 268 280.133 268C279.733 268 274.667 263.333 268.933 257.6L258.667 247.333L265.867 239.733C292.133 211.867 300.8 173.067 288.533 138.267C280.4 115.333 263.733 95.4666 244.267 85.3332C238.933 82.5332 238.4 82.5332 235.333 84.5332C229.467 88.3999 230.933 92.5332 240 98.6666C257.467 110.533 268.933 125.333 275.333 144.4C282.267 165.067 280.8 187.733 271.333 207.333C266.267 217.6 256.533 230.667 251.2 234.133L247.867 236.4L235.333 224L222.933 211.6L230.533 204.133C241.867 193.067 244.667 186.267 244.667 170.667C244.667 159.467 244.267 157.067 240.933 150.533C236.533 141.333 227.6 132.933 217.867 128.4C209.333 124.533 204.4 125.067 203.2 129.867C202 134.667 204.533 138 210.667 139.867C227.733 144.933 236.667 166.533 228.8 183.333C225.733 190 216.133 200 212.933 200C212 200 205.2 193.867 197.6 186.267L184 172.667V104.667C184 39.8666 183.867 36.6666 181.333 31.3332C176.667 21.5999 164.933 17.9999 154.667 23.3332C152.133 24.6666 137.2 38.3999 121.6 53.8666L93.3334 81.8666L52.2667 40.9332C25.0667 13.7332 10.2667 -9.91821e-05 8.53335 -9.91821e-05C6.93335 -9.91821e-05 4.66668 1.1999 3.33335 2.66657Z" fill="white"/>
<path d="M71.6 103.733L68 107.467V170.133V232.667L111.067 275.6C148.667 313.2 154.667 318.667 159.733 320C166.8 321.867 172.8 320.133 177.6 314.933C183.6 308.4 184 305.2 184 255.467V208.667L129.6 154.267L75.2 99.8667L71.6 103.733Z" fill="white"/>
<path d="M10.4 112.133C7.33333 113.733 4.26667 116.8 2.66667 120C0.133333 124.933 0 127.733 0 170.667C0 213.6 0.133333 216.4 2.66667 221.333C7.2 230.267 12.4 232 35.3333 232H54.6667V170.667V109.333H35.0667C18 109.467 14.6667 109.867 10.4 112.133Z" fill="white"/>
</svg>
